<?xml version="1.0" encoding="iso-8859-1"?>
<!-- Generator: Adobe Illustrator 19.0.0, SVG Export Plug-In . SVG Version: 6.00 Build 0)  -->
<svg version="1.1" id="Layer_1" xmlns="http://www.w3.org/2000/svg" xmlns:xlink="http://www.w3.org/1999/xlink" x="0px" y="0px"
	 viewBox="0 0 512 512" style="enable-background:new 0 0 512 512;" xml:space="preserve">
<polygon style="fill:#F7CD95;" points="41.603,289.43 86.887,503.829 425.112,503.829 470.397,289.43 "/>
<path style="fill:#8E4238;" d="M460.07,156.627c-34.01,0-34.01,28.628-68.031,28.628c-34.01,0-34.01-28.628-68.031-28.628
	c-34.01,0-34.01,28.628-68.02,28.628s-34.01-28.628-68.02-28.628s-34.01,28.628-68.02,28.628s-34.01-28.628-68.02-28.628
	C79.752,70.481,160.605,8.169,256,8.169S432.248,70.481,460.07,156.627z"/>
<path style="fill:#FC9851;" d="M470.397,222.566c0-23.007-3.628-45.165-10.327-65.939c-34.01,0-34.01,28.628-68.031,28.628
	c-34.01,0-34.01-28.628-68.031-28.628c-34.01,0-34.01,28.628-68.02,28.628s-34.01-28.628-68.02-28.628s-34.01,28.628-68.02,28.628
	s-34.01-28.628-68.02-28.628c-6.7,20.774-10.327,42.932-10.327,65.939c-18.465,0-33.433,14.968-33.433,33.433
	s14.968,33.432,33.433,33.432h428.794c18.465,0,33.433-14.968,33.433-33.432C503.83,237.534,488.862,222.566,470.397,222.566z"/>
<g>
	<path style="fill:#700D00;" d="M412.939,313.693c-4.46-0.708-8.642,2.336-9.348,6.79L379.912,469.87
		c-0.706,4.457,2.333,8.642,6.79,9.348c0.432,0.069,0.864,0.102,1.289,0.102c3.949,0,7.422-2.869,8.059-6.892l23.679-149.387
		C420.436,318.584,417.397,314.398,412.939,313.693z"/>
	<path style="fill:#700D00;" d="M360.633,313.67c-4.499-0.468-8.51,2.779-8.984,7.265l-6.179,58.429
		c-0.475,4.487,2.778,8.51,7.265,8.984c0.293,0.031,0.582,0.047,0.869,0.047c4.126,0,7.671-3.117,8.115-7.312l6.179-58.429
		C368.372,318.167,365.12,314.145,360.633,313.67z"/>
	<path style="fill:#700D00;" d="M351.017,404.597c-4.496-0.471-8.51,2.779-8.984,7.265l-6.179,58.428
		c-0.475,4.487,2.778,8.51,7.265,8.984c0.293,0.031,0.582,0.047,0.869,0.047c4.126,0,7.671-3.117,8.115-7.312l6.179-58.428
		C358.756,409.093,355.504,405.072,351.017,404.597z"/>
	<path style="fill:#700D00;" d="M308.319,313.669c-4.481-0.252-8.352,3.219-8.591,7.727l-7.912,149.322
		c-0.24,4.506,3.22,8.352,7.727,8.591c0.147,0.009,0.293,0.012,0.439,0.012c4.314,0,7.921-3.38,8.151-7.739l7.912-149.322
		C316.285,317.754,312.825,313.907,308.319,313.669z"/>
	<path style="fill:#700D00;" d="M256.001,313.69c-4.513,0-8.17,3.657-8.171,8.169l-0.027,149.289
		c-0.001,4.512,3.656,8.17,8.169,8.171c4.513,0,8.17-3.657,8.171-8.169l0.027-149.289
		C264.171,317.35,260.514,313.691,256.001,313.69z"/>
	<path style="fill:#700D00;" d="M212.271,321.464c-0.236-4.506-4.049-8.008-8.589-7.729c-4.506,0.237-7.967,4.082-7.729,8.589
		l7.856,149.257c0.229,4.36,3.836,7.74,8.151,7.74c0.145,0,0.291-0.003,0.437-0.012c4.506-0.237,7.967-4.082,7.729-8.589
		L212.271,321.464z"/>
	<path style="fill:#700D00;" d="M160.352,321.069c-0.474-4.487-4.486-7.724-8.983-7.268c-4.487,0.474-7.741,4.495-7.268,8.983
		l15.739,149.224c0.442,4.196,3.988,7.314,8.116,7.314c0.286,0,0.575-0.015,0.867-0.046c4.487-0.474,7.741-4.495,7.268-8.983
		L160.352,321.069z"/>
	<path style="fill:#700D00;" d="M108.409,320.683c-0.704-4.458-4.885-7.497-9.347-6.791c-4.457,0.705-7.498,4.89-6.792,9.347
		l23.625,149.19c0.636,4.024,4.11,6.893,8.059,6.893c0.425,0,0.854-0.033,1.288-0.101c4.457-0.706,7.498-4.891,6.792-9.348
		L108.409,320.683z"/>
	<path style="fill:#700D00;" d="M512,256c0-20.187-14.453-37.061-33.555-40.821c-0.684-20.894-4.272-41.065-10.357-60.131
		c-0.126-0.647-0.334-1.265-0.605-1.848C438.268,64.341,354.513,0,256,0S73.732,64.341,44.515,153.202
		c-0.27,0.583-0.477,1.199-0.604,1.848c-6.083,19.066-9.671,39.237-10.357,60.131C14.453,218.939,0,235.813,0,256
		c0,20.645,15.117,37.818,34.862,41.049l44.035,208.469c0.797,3.779,4.132,6.482,7.994,6.482h338.218
		c3.862,0,7.195-2.703,7.994-6.482l44.036-208.468C496.883,293.818,512,276.645,512,256z M256,16.34
		c87.995,0,163.281,55.406,192.841,133.158c-12.933,2.507-20.878,9.159-28.045,15.191c-8.228,6.925-14.727,12.396-28.754,12.396
		c-14.028,0-20.527-5.47-28.755-12.396c-9.041-7.609-19.288-16.234-39.277-16.234c-19.987,0-30.232,8.626-39.273,16.235
		c-8.227,6.924-14.725,12.395-28.749,12.395c-14.026,0-20.525-5.47-28.752-12.396c-9.041-7.609-19.287-16.234-39.274-16.234
		s-30.233,8.626-39.273,16.235c-8.227,6.924-14.725,12.395-28.748,12.395c-14.024,0-20.522-5.47-28.749-12.396
		c-7.165-6.032-15.107-12.685-28.038-15.191C92.718,71.746,168.005,16.34,256,16.34z M418.484,495.66H93.515L51.679,297.604h408.641
		L418.484,495.66z M470.397,281.263H41.603c-13.93,0-25.262-11.333-25.262-25.263c0-13.93,11.333-25.261,25.262-25.261
		c4.513,0,8.17-3.657,8.17-8.17c0-19.905,2.844-39.157,8.131-57.381c10.077,1.349,15.813,6.149,22.769,12.004
		c9.04,7.609,19.286,16.235,39.273,16.235s30.232-8.624,39.271-16.234c8.227-6.925,14.725-12.396,28.749-12.396
		c14.024,0,20.524,5.47,28.75,12.395c9.041,7.609,19.287,16.235,39.275,16.235c19.987,0,30.232-8.626,39.273-16.235
		c8.227-6.924,14.725-12.395,28.749-12.395c14.028,0,20.527,5.47,28.755,12.396c9.041,7.609,19.288,16.234,39.277,16.234
		c19.989,0,30.235-8.624,39.276-16.234c6.958-5.855,12.695-10.656,22.776-12.005c5.287,18.224,8.131,37.476,8.131,57.381
		c0,4.513,3.657,8.17,8.17,8.17c13.93,0,25.262,11.332,25.262,25.261C495.66,269.931,484.327,281.263,470.397,281.263z"/>
</g>
<g>
</g>
<g>
</g>
<g>
</g>
<g>
</g>
<g>
</g>
<g>
</g>
<g>
</g>
<g>
</g>
<g>
</g>
<g>
</g>
<g>
</g>
<g>
</g>
<g>
</g>
<g>
</g>
<g>
</g>
</svg>
